<svg width="24" height="25" viewBox="0 0 24 25" fill="none" xmlns="http://www.w3.org/2000/svg">
<path d="M15.5 5.33398C16.9045 5.33398 17.6067 5.33398 18.1111 5.67105C18.3295 5.81696 18.517 6.00446 18.6629 6.22284C19 6.72729 19 7.42952 19 8.83398V18.334C19 20.2196 19 21.1624 18.4142 21.7482C17.8284 22.334 16.8856 22.334 15 22.334H9C7.11438 22.334 6.17157 22.334 5.58579 21.7482C5 21.1624 5 20.2196 5 18.334V8.83398C5 7.42952 5 6.72729 5.33706 6.22284C5.48298 6.00446 5.67048 5.81696 5.88886 5.67105C6.39331 5.33398 7.09554 5.33398 8.5 5.33398" stroke="#949494" stroke-width="2"/>
<path d="M9 5.33398C9 4.22941 9.89543 3.33398 11 3.33398H13C14.1046 3.33398 15 4.22941 15 5.33398C15 6.43855 14.1046 7.33398 13 7.33398H11C9.89543 7.33398 9 6.43855 9 5.33398Z" stroke="#949494" stroke-width="2"/>
<path d="M9 12.334L15 12.334" stroke="#949494" stroke-width="2" stroke-linecap="round"/>
<path d="M9 16.334L13 16.334" stroke="#949494" stroke-width="2" stroke-linecap="round"/>
</svg>
