<svg width="7" height="10" viewBox="0 0 7 10" fill="none" xmlns="http://www.w3.org/2000/svg">
<path d="M6.15046 4.4002C6.26771 4.5173 6.33365 4.67616 6.3338 4.84187V5.15854C6.33188 5.32388 6.2662 5.4821 6.15046 5.6002L1.86713 9.8752C1.78889 9.95408 1.6824 9.99845 1.5713 9.99845C1.4602 9.99845 1.3537 9.95408 1.27546 9.8752L0.683796 9.28354C0.605409 9.20673 0.561237 9.10161 0.561237 8.99187C0.561237 8.88213 0.605409 8.77701 0.683796 8.7002L4.39213 5.0002L0.683796 1.3002C0.604916 1.22197 0.560547 1.11547 0.560547 1.00437C0.560547 0.89327 0.604916 0.786772 0.683796 0.708536L1.27546 0.125202C1.3537 0.0463222 1.4602 0.00195312 1.5713 0.00195312C1.6824 0.00195312 1.78889 0.0463222 1.86713 0.125202L6.15046 4.4002Z" fill="#1E1E1E"/>
</svg>
