<svg width="20" height="20" viewBox="0 0 20 20" fill="none" xmlns="http://www.w3.org/2000/svg">
<mask id="mask0_888_5788" style="mask-type:alpha" maskUnits="userSpaceOnUse" x="0" y="0" width="20" height="20">
<path d="M10.6002 13.1505C10.4831 13.2677 10.3242 13.3337 10.1585 13.3338H9.84187C9.67652 13.3319 9.5183 13.2662 9.4002 13.1505L5.1252 8.86713C5.04632 8.78889 5.00195 8.6824 5.00195 8.5713C5.00195 8.4602 5.04632 8.3537 5.1252 8.27546L5.71687 7.6838C5.79367 7.60541 5.89879 7.56124 6.00854 7.56124C6.11828 7.56124 6.2234 7.60541 6.3002 7.6838L10.0002 11.3921L13.7002 7.6838C13.7784 7.60492 13.8849 7.56055 13.996 7.56055C14.1071 7.56055 14.2136 7.60492 14.2919 7.6838L14.8752 8.27546C14.9541 8.3537 14.9985 8.4602 14.9985 8.5713C14.9985 8.6824 14.9541 8.78889 14.8752 8.86713L10.6002 13.1505Z" fill="#9096A6"/>
</mask>
<g mask="url(#mask0_888_5788)">
<rect width="20" height="20" fill="#9096A6"/>
</g>
</svg>
