<svg width="18" height="18" viewBox="0 0 18 18" fill="none" xmlns="http://www.w3.org/2000/svg">
<path fill-rule="evenodd" clip-rule="evenodd" d="M4.5 3C2.84315 3 1.5 4.34315 1.5 6V6.4874L2.25 6.82074L3 7.15407L9 9.82074L15 7.15407L16.5 6.48741V6C16.5 4.34315 15.1569 3 13.5 3H4.5ZM9 8.17926L3.07058 5.54396C3.26357 4.93852 3.83058 4.5 4.5 4.5H13.5C14.1694 4.5 14.7364 4.93852 14.9294 5.54396L9 8.17926ZM16.5 6.48741V12C16.5 13.6569 15.1569 15 13.5 15H4.5C2.84315 15 1.5 13.6569 1.5 12V6.4874L2.25 6.82074L3 7.15407V12C3 12.8284 3.67157 13.5 4.5 13.5H13.5C14.3284 13.5 15 12.8284 15 12V7.15407L16.5 6.48741Z" fill="#949494"/>
</svg>
