<svg width="15" height="15" viewBox="0 0 15 15" fill="none" xmlns="http://www.w3.org/2000/svg">
<path d="M11 0.914062C11.3604 0.914062 11.6531 1.066 11.916 1.2666C12.1673 1.45837 12.4444 1.73733 12.7676 2.06055L12.9395 2.23242C13.2627 2.55564 13.5416 2.83268 13.7334 3.08398C13.934 3.3469 14.0859 3.63961 14.0859 4C14.0859 4.36038 13.934 4.6531 13.7334 4.91602C13.5416 5.16732 13.2627 5.44436 12.9395 5.76758L5.74512 12.9619C5.56928 13.1377 5.4185 13.2942 5.22754 13.4023C5.03664 13.5104 4.82512 13.5589 4.58398 13.6191L1.92969 14.2832C1.7655 14.3242 1.587 14.3702 1.43848 14.3848C1.28375 14.3999 1.02289 14.3959 0.813477 14.1865C0.604068 13.9771 0.600098 13.7163 0.615234 13.5615C0.629764 13.413 0.67575 13.2345 0.716797 13.0703L1.38086 10.416C1.44114 10.1749 1.48962 9.96336 1.59766 9.77246C1.70578 9.5815 1.86225 9.43071 2.03809 9.25488L9.23242 2.06055C9.55564 1.73733 9.83268 1.45837 10.084 1.2666C10.3469 1.066 10.6396 0.914062 11 0.914062Z" stroke="#10603C"/>
</svg>
