<svg width="20" height="20" viewBox="0 0 20 20" fill="none" xmlns="http://www.w3.org/2000/svg">
<path d="M9.99967 11.6667L9.29257 12.3739L9.99967 13.081L10.7068 12.3739L9.99967 11.6667ZM10.9997 4.16675C10.9997 3.61446 10.552 3.16675 9.99968 3.16675C9.44739 3.16675 8.99968 3.61446 8.99968 4.16675L10.9997 4.16675ZM5.83301 7.50008L5.1259 8.20719L9.29257 12.3739L9.99967 11.6667L10.7068 10.9596L6.54011 6.79297L5.83301 7.50008ZM9.99967 11.6667L10.7068 12.3739L14.8734 8.20719L14.1663 7.50008L13.4592 6.79298L9.29257 10.9596L9.99967 11.6667ZM9.99967 11.6667L10.9997 11.6667L10.9997 4.16675L9.99968 4.16675L8.99968 4.16675L8.99967 11.6667L9.99967 11.6667Z" fill="#10603C"/>
<path d="M4.16699 13.3333L4.16699 14.1666C4.16699 15.0871 4.91318 15.8333 5.83366 15.8333L14.167 15.8333C15.0875 15.8333 15.8337 15.0871 15.8337 14.1666V13.3333" stroke="#10603C" stroke-width="2"/>
</svg>
