<svg width="32" height="32" viewBox="0 0 32 32" fill="none" xmlns="http://www.w3.org/2000/svg">
<rect width="32" height="32" rx="8" fill="#BBD3CD" fill-opacity="0.25"/>
<path d="M23.459 12.91C23.4238 12.113 23.2949 11.5651 23.1103 11.0903C22.9198 10.5863 22.6268 10.1351 22.2429 9.76001C21.8678 9.37908 21.4136 9.08308 20.9155 8.89559C20.4379 8.71096 19.8929 8.58207 19.0958 8.54693C18.2929 8.50881 18.038 8.5 16.0015 8.5C13.9649 8.5 13.71 8.50881 12.91 8.54395C12.113 8.57909 11.5651 8.70809 11.0904 8.89261C10.5863 9.08308 10.1351 9.3761 9.76001 9.76001C9.37908 10.1351 9.08319 10.5893 8.89558 11.0874C8.71096 11.5651 8.58207 12.1101 8.54693 12.9071C8.50881 13.71 8.5 13.9649 8.5 16.0015C8.5 18.038 8.50881 18.2929 8.54395 19.0929C8.57909 19.8899 8.70809 20.4378 8.89272 20.9126C9.08319 21.4166 9.37908 21.8678 9.76001 22.2429C10.1351 22.6239 10.5893 22.9199 11.0874 23.1073C11.5651 23.292 12.1101 23.4209 12.9072 23.456C13.707 23.4913 13.9621 23.5 15.9986 23.5C18.0351 23.5 18.29 23.4913 19.09 23.456C19.887 23.4209 20.435 23.292 20.9096 23.1073C21.9177 22.7176 22.7147 21.9206 23.1045 20.9126C23.289 20.435 23.418 19.8899 23.4531 19.0929C23.4883 18.2929 23.4971 18.038 23.4971 16.0015C23.4971 13.9649 23.4941 13.71 23.459 12.91ZM22.1082 19.0343C22.0759 19.7668 21.9528 20.1624 21.8503 20.4262C21.5982 21.0796 21.0796 21.5983 20.4261 21.8503C20.1624 21.9529 19.764 22.0759 19.0343 22.1081C18.2431 22.1433 18.0058 22.152 16.0044 22.152C14.003 22.152 13.7628 22.1433 12.9745 22.1081C12.2419 22.0759 11.8463 21.9529 11.5826 21.8503C11.2574 21.7301 10.9614 21.5397 10.7212 21.2906C10.4721 21.0473 10.2816 20.7543 10.1614 20.4291C10.0589 20.1654 9.93583 19.7668 9.90366 19.0373C9.86841 18.2461 9.85971 18.0087 9.85971 16.0073C9.85971 14.0059 9.86841 13.7657 9.90366 12.9775C9.93583 12.2449 10.0589 11.8493 10.1614 11.5856C10.2816 11.2603 10.4721 10.9644 10.7241 10.724C10.9673 10.4749 11.2603 10.2845 11.5856 10.1644C11.8493 10.0619 12.2479 9.9388 12.9775 9.90652C13.7686 9.87138 14.006 9.86257 16.0073 9.86257C18.0117 9.86257 18.2489 9.87138 19.0372 9.90652C19.7698 9.9388 20.1654 10.0619 20.4291 10.1644C20.7543 10.2845 21.0503 10.4749 21.2906 10.724C21.5396 10.9673 21.7301 11.2603 21.8503 11.5856C21.9528 11.8493 22.0759 12.2478 22.1082 12.9775C22.1433 13.7686 22.1521 14.0059 22.1521 16.0073C22.1521 18.0087 22.1433 18.2431 22.1082 19.0343Z" fill="#1E1E1E"/>
<path d="M16.0015 12.1482C13.8742 12.1482 12.1482 13.8741 12.1482 16.0015C12.1482 18.1289 13.8742 19.8548 16.0015 19.8548C18.1289 19.8548 19.8547 18.1289 19.8547 16.0015C19.8547 13.8741 18.1289 12.1482 16.0015 12.1482ZM16.0015 18.501C14.6214 18.501 13.5019 17.3817 13.5019 16.0015C13.5019 14.6213 14.6214 13.5019 16.0015 13.5019C17.3816 13.5019 18.501 14.6213 18.501 16.0015C18.501 17.3817 17.3816 18.501 16.0015 18.501Z" fill="#1E1E1E"/>
<path d="M20.9068 11.9958C20.9068 12.4926 20.504 12.8954 20.0071 12.8954C19.5103 12.8954 19.1075 12.4926 19.1075 11.9958C19.1075 11.4989 19.5103 11.0963 20.0071 11.0963C20.504 11.0963 20.9068 11.4989 20.9068 11.9958Z" fill="#1E1E1E"/>
</svg>
