<svg width="81" height="29" viewBox="0 0 81 29" fill="none" xmlns="http://www.w3.org/2000/svg">
<path d="M0.156 22.5V0.0999985H5.34V18.276H16.572V22.5H0.156ZM27.4648 22.756C25.6301 22.756 23.9981 22.372 22.5688 21.604C21.1608 20.836 20.0408 19.7907 19.2088 18.468C18.3981 17.124 17.9928 15.5987 17.9928 13.892C17.9928 12.164 18.3981 10.6387 19.2088 9.316C20.0408 7.972 21.1608 6.92667 22.5688 6.18C23.9981 5.412 25.6301 5.028 27.4648 5.028C29.2781 5.028 30.8994 5.412 32.3288 6.18C33.7581 6.92667 34.8781 7.96133 35.6888 9.284C36.4994 10.6067 36.9048 12.1427 36.9048 13.892C36.9048 15.5987 36.4994 17.124 35.6888 18.468C34.8781 19.7907 33.7581 20.836 32.3288 21.604C30.8994 22.372 29.2781 22.756 27.4648 22.756ZM27.4648 18.66C28.2968 18.66 29.0434 18.468 29.7048 18.084C30.3661 17.7 30.8888 17.156 31.2728 16.452C31.6568 15.7267 31.8488 14.8733 31.8488 13.892C31.8488 12.8893 31.6568 12.036 31.2728 11.332C30.8888 10.628 30.3661 10.084 29.7048 9.7C29.0434 9.316 28.2968 9.124 27.4648 9.124C26.6328 9.124 25.8861 9.316 25.2248 9.7C24.5634 10.084 24.0301 10.628 23.6248 11.332C23.2408 12.036 23.0488 12.8893 23.0488 13.892C23.0488 14.8733 23.2408 15.7267 23.6248 16.452C24.0301 17.156 24.5634 17.7 25.2248 18.084C25.8861 18.468 26.6328 18.66 27.4648 18.66ZM48.5875 28.964C46.9662 28.964 45.3982 28.7613 43.8835 28.356C42.3902 27.972 41.1422 27.3853 40.1395 26.596L42.1235 23.012C42.8488 23.6093 43.7662 24.0787 44.8755 24.42C46.0062 24.7827 47.1155 24.964 48.2035 24.964C49.9742 24.964 51.2542 24.5693 52.0435 23.78C52.8542 22.9907 53.2595 21.8173 53.2595 20.26V17.668L53.5795 13.348L53.5155 8.996V5.284H58.2515V19.62C58.2515 22.82 57.4195 25.1773 55.7555 26.692C54.0915 28.2067 51.7022 28.964 48.5875 28.964ZM47.8195 21.668C46.2195 21.668 44.7688 21.3267 43.4675 20.644C42.1875 19.94 41.1528 18.9693 40.3635 17.732C39.5955 16.4733 39.2115 15.012 39.2115 13.348C39.2115 11.6627 39.5955 10.2013 40.3635 8.964C41.1528 7.70533 42.1875 6.73467 43.4675 6.052C44.7688 5.36933 46.2195 5.028 47.8195 5.028C49.2702 5.028 50.5502 5.32667 51.6595 5.924C52.7688 6.5 53.6328 7.40667 54.2515 8.644C54.8702 9.86 55.1795 11.428 55.1795 13.348C55.1795 15.2467 54.8702 16.8147 54.2515 18.052C53.6328 19.268 52.7688 20.1747 51.6595 20.772C50.5502 21.3693 49.2702 21.668 47.8195 21.668ZM48.8115 17.572C49.6862 17.572 50.4648 17.4013 51.1475 17.06C51.8302 16.6973 52.3635 16.196 52.7475 15.556C53.1315 14.916 53.3235 14.18 53.3235 13.348C53.3235 12.4947 53.1315 11.7587 52.7475 11.14C52.3635 10.5 51.8302 10.0093 51.1475 9.668C50.4648 9.30533 49.6862 9.124 48.8115 9.124C47.9368 9.124 47.1582 9.30533 46.4755 9.668C45.7928 10.0093 45.2488 10.5 44.8435 11.14C44.4595 11.7587 44.2675 12.4947 44.2675 13.348C44.2675 14.18 44.4595 14.916 44.8435 15.556C45.2488 16.196 45.7928 16.6973 46.4755 17.06C47.1582 17.4013 47.9368 17.572 48.8115 17.572ZM71.3398 22.756C69.5051 22.756 67.8731 22.372 66.4438 21.604C65.0358 20.836 63.9158 19.7907 63.0838 18.468C62.2731 17.124 61.8678 15.5987 61.8678 13.892C61.8678 12.164 62.2731 10.6387 63.0838 9.316C63.9158 7.972 65.0358 6.92667 66.4438 6.18C67.8731 5.412 69.5051 5.028 71.3398 5.028C73.1531 5.028 74.7744 5.412 76.2038 6.18C77.6331 6.92667 78.7531 7.96133 79.5638 9.284C80.3744 10.6067 80.7798 12.1427 80.7798 13.892C80.7798 15.5987 80.3744 17.124 79.5638 18.468C78.7531 19.7907 77.6331 20.836 76.2038 21.604C74.7744 22.372 73.1531 22.756 71.3398 22.756ZM71.3398 18.66C72.1718 18.66 72.9184 18.468 73.5798 18.084C74.2411 17.7 74.7638 17.156 75.1478 16.452C75.5318 15.7267 75.7238 14.8733 75.7238 13.892C75.7238 12.8893 75.5318 12.036 75.1478 11.332C74.7638 10.628 74.2411 10.084 73.5798 9.7C72.9184 9.316 72.1718 9.124 71.3398 9.124C70.5078 9.124 69.7611 9.316 69.0998 9.7C68.4384 10.084 67.9051 10.628 67.4998 11.332C67.1158 12.036 66.9238 12.8893 66.9238 13.892C66.9238 14.8733 67.1158 15.7267 67.4998 16.452C67.9051 17.156 68.4384 17.7 69.0998 18.084C69.7611 18.468 70.5078 18.66 71.3398 18.66Z" fill="#1E1E1E"/>
</svg>
