<svg width="32" height="32" viewBox="0 0 32 32" fill="none" xmlns="http://www.w3.org/2000/svg">
<path d="M26.6666 21.3337L27.3737 22.0408L28.0808 21.3337L27.3737 20.6266L26.6666 21.3337ZM15.3333 21.3337L15.3333 22.3337L15.3333 21.3337ZM14.3333 18.667C14.3333 18.1147 13.8856 17.667 13.3333 17.667C12.781 17.667 12.3333 18.1147 12.3333 18.667L14.3333 18.667ZM21.3333 26.667L22.0404 27.3741L27.3737 22.0408L26.6666 21.3337L25.9595 20.6266L20.6262 25.9599L21.3333 26.667ZM26.6666 21.3337L27.3737 20.6266L22.0404 15.2932L21.3333 16.0003L20.6262 16.7074L25.9595 22.0408L26.6666 21.3337ZM26.6666 21.3337L26.6666 20.3337L15.3333 20.3337L15.3333 21.3337L15.3333 22.3337L26.6666 22.3337L26.6666 21.3337ZM13.3333 19.3337L14.3333 19.3337L14.3333 18.667L13.3333 18.667L12.3333 18.667L12.3333 19.3337L13.3333 19.3337ZM15.3333 21.3337L15.3333 20.3337C14.781 20.3337 14.3333 19.8859 14.3333 19.3337L13.3333 19.3337L12.3333 19.3337C12.3333 20.9905 13.6764 22.3337 15.3333 22.3337L15.3333 21.3337Z" fill="#10603C"/>
<path d="M5.33337 10.6667L4.62627 11.3738L3.91916 10.6667L4.62627 9.95956L5.33337 10.6667ZM16.6667 10.6667L16.6667 11.6667L16.6667 10.6667ZM19.6667 13.3333C19.6667 13.8856 19.219 14.3333 18.6667 14.3333C18.1144 14.3333 17.6667 13.8856 17.6667 13.3333L19.6667 13.3333ZM10.6667 16L9.9596 16.7071L4.62627 11.3738L5.33337 10.6667L6.04048 9.95956L11.3738 15.2929L10.6667 16ZM5.33337 10.6667L4.62627 9.95956L9.9596 4.62623L10.6667 5.33333L11.3738 6.04044L6.04048 11.3738L5.33337 10.6667ZM5.33337 10.6667L5.33337 9.66667L16.6667 9.66667L16.6667 10.6667L16.6667 11.6667L5.33337 11.6667L5.33337 10.6667ZM18.6667 12.6667L19.6667 12.6667L19.6667 13.3333L18.6667 13.3333L17.6667 13.3333L17.6667 12.6667L18.6667 12.6667ZM16.6667 10.6667L16.6667 9.66667C18.3236 9.66667 19.6667 11.0098 19.6667 12.6667L18.6667 12.6667L17.6667 12.6667C17.6667 12.1144 17.219 11.6667 16.6667 11.6667L16.6667 10.6667Z" fill="#10603C"/>
</svg>
