<svg width="34" height="34" viewBox="0 0 34 34" fill="none" xmlns="http://www.w3.org/2000/svg">
<path d="M17.0763 11.4488C18.186 11.4486 19.2708 11.7741 20.1934 12.3842C21.1162 12.9943 21.8355 13.8615 22.2601 14.8761C22.6849 15.8908 22.7961 17.0074 22.5795 18.0846C22.3632 19.1618 21.8288 20.1512 21.0442 20.9279C20.2595 21.7045 19.2599 22.2334 18.1715 22.4476C17.0832 22.6617 15.9551 22.5518 14.9299 22.1314C13.9048 21.7111 13.0286 20.9992 12.4122 20.0858C11.7959 19.1726 11.467 18.0989 11.4672 17.0006C11.4689 15.5287 12.0604 14.1176 13.112 13.0768C14.1635 12.036 15.5892 11.4505 17.0763 11.4488ZM17.0763 8.66211C15.4099 8.66211 13.7808 9.15124 12.3952 10.0676C11.0096 10.984 9.92971 12.2865 9.29202 13.8104C8.65433 15.3343 8.48755 17.0111 8.81273 18.6288C9.13789 20.2465 9.94046 21.7325 11.1189 22.8987C12.2973 24.0649 13.7987 24.8591 15.4332 25.1807C17.0676 25.5025 18.7617 25.3372 20.3013 24.7059C21.8408 24.0745 23.1566 23.0054 24.0823 21.6339C25.008 20.2625 25.502 18.65 25.5018 17.0006C25.5018 15.9055 25.284 14.8211 24.8605 13.8094C24.437 12.7976 23.8165 11.8784 23.0341 11.1041C22.2515 10.3298 21.3228 9.71557 20.3005 9.29657C19.2783 8.87759 18.1827 8.662 17.0763 8.66211Z" fill="#10603C"/>
<path d="M17.0762 3.76324C24.453 3.76324 30.4508 9.70164 30.4508 17.0002C30.4508 24.2987 24.4511 30.238 17.0762 30.238C9.70131 30.238 3.70251 24.2997 3.70251 17.0002C3.70251 9.7007 9.70227 3.76324 17.0762 3.76324ZM17.0762 0.976563C13.874 0.976563 10.7438 1.91641 8.08136 3.67726C5.4189 5.4381 3.34379 7.94085 2.11842 10.869C0.893061 13.7972 0.572499 17.0192 1.19727 20.1278C1.82204 23.2362 3.36408 26.0915 5.6284 28.3325C7.89271 30.5736 10.7776 32.0996 13.9182 32.7178C17.0589 33.3361 20.3142 33.0187 23.2725 31.8055C26.2308 30.5926 28.7593 28.5385 30.5382 25.9032C32.317 23.2679 33.2663 20.1696 33.2661 17.0002C33.2661 14.8958 32.8474 12.8121 32.0338 10.868C31.2202 8.92386 30.0277 7.15738 28.5241 5.66944C27.0208 4.18149 25.2361 3.00123 23.2717 2.19602C21.3075 1.39081 19.2022 0.97644 17.0762 0.976563Z" fill="#10603C"/>
</svg>
