<svg width="16" height="16" viewBox="0 0 16 16" fill="none" xmlns="http://www.w3.org/2000/svg">
<path d="M14 2V1.5H14.5V2H14ZM7.68689 9.02022C7.49162 9.21548 7.17504 9.21548 6.97978 9.02022C6.78452 8.82496 6.78452 8.50838 6.97978 8.31311L7.68689 9.02022ZM14 7.33333H13.5V2H14H14.5V7.33333H14ZM14 2V2.5H8.66667V2V1.5H14V2ZM14 2L14.3536 2.35355L7.68689 9.02022L7.33333 8.66667L6.97978 8.31311L13.6464 1.64645L14 2Z" fill="#10603C"/>
<path d="M13.333 10.0003V10.0003C13.333 10.3099 13.333 10.4646 13.3216 10.5951C13.1947 12.0455 12.0448 13.1954 10.5945 13.3222C10.464 13.3337 10.3092 13.3337 9.99967 13.3337H7.99968C5.81352 13.3337 4.72045 13.3337 3.94561 12.7911C3.65895 12.5904 3.40961 12.3411 3.20889 12.0544C2.66634 11.2796 2.66634 10.1865 2.66634 8.00033V6.00033C2.66634 5.69078 2.66634 5.53601 2.67776 5.40552C2.80465 3.95518 3.95453 2.8053 5.40487 2.67841C5.53536 2.66699 5.69013 2.66699 5.99967 2.66699V2.66699" stroke="#10603C" stroke-linecap="round"/>
</svg>
