<svg width="40" height="40" viewBox="0 0 40 40" fill="none" xmlns="http://www.w3.org/2000/svg">
<path d="M20.0002 0.24707C9.09645 0.24707 0.24707 9.09645 0.24707 20.0002C0.24707 30.9039 9.09645 39.7532 20.0002 39.7532C30.9039 39.7532 39.7532 30.9039 39.7532 20.0002C39.7532 9.09645 30.9039 0.24707 20.0002 0.24707ZM20.0002 8.14831C23.8125 8.14831 26.9137 11.2495 26.9137 15.0619C26.9137 18.8742 23.8125 21.9755 20.0002 21.9755C16.1878 21.9755 13.0866 18.8742 13.0866 15.0619C13.0866 11.2495 16.1878 8.14831 20.0002 8.14831ZM20.0002 35.8026C15.9903 35.8026 11.2495 34.1829 7.87176 30.1137C11.21 27.5063 15.4174 25.9261 20.0002 25.9261C24.5829 25.9261 28.7903 27.5063 32.1286 30.1137C28.7508 34.1829 24.01 35.8026 20.0002 35.8026Z" fill="#949494"/>
</svg>
