<svg width="54" height="54" viewBox="0 0 54 54" fill="none" xmlns="http://www.w3.org/2000/svg">
<path d="M26.6667 0C11.9467 0 0 11.9467 0 26.6667C0 41.3867 11.9467 53.3333 26.6667 53.3333C41.3867 53.3333 53.3333 41.3867 53.3333 26.6667C53.3333 11.9467 41.3867 0 26.6667 0ZM26.6667 10.6667C31.8133 10.6667 36 14.8533 36 20C36 25.1467 31.8133 29.3333 26.6667 29.3333C21.52 29.3333 17.3333 25.1467 17.3333 20C17.3333 14.8533 21.52 10.6667 26.6667 10.6667ZM26.6667 48C21.2533 48 14.8533 45.8133 10.2933 40.32C14.8 36.8 20.48 34.6667 26.6667 34.6667C32.8533 34.6667 38.5333 36.8 43.04 40.32C38.48 45.8133 32.08 48 26.6667 48Z" fill="#949494"/>
</svg>
