<svg width="24" height="25" viewBox="0 0 24 25" fill="none" xmlns="http://www.w3.org/2000/svg">
<path d="M12.6318 2.33398V1.33398V2.33398ZM13.4629 2.4043L13.8309 1.47449L13.8306 1.47434L13.4629 2.4043ZM13.9834 2.87598L14.8723 2.41782L14.8722 2.41772L13.9834 2.87598ZM14.1357 3.69531L15.1308 3.59595L14.1357 3.69531ZM14.4307 5.15234L13.6355 5.75871L13.6357 5.75896L14.4307 5.15234ZM15.3594 5.53711L15.4927 6.52819L15.493 6.52814L15.3594 5.53711ZM16.5977 4.71484L15.9645 3.94082L16.5977 4.71484ZM17.2861 4.24316L16.9822 3.29047L16.9821 3.2905L17.2861 4.24316ZM17.9873 4.27832L18.3848 3.36072L18.3847 3.36067L17.9873 4.27832ZM18.625 4.81641L17.9179 5.52351L18.625 4.81641ZM19.5176 5.70898L20.2247 5.00188L19.5176 5.70898ZM20.0557 6.34668L20.9734 5.94946L20.9732 5.94913L20.0557 6.34668ZM20.0908 7.04785L21.0433 7.35235L21.0435 7.35191L20.0908 7.04785ZM19.6182 7.73535L20.392 8.36877L19.6182 7.73535ZM18.7969 8.97363L17.8059 8.83929L17.8058 8.8401L18.7969 8.97363ZM19.1816 9.90234L18.5751 10.6974L18.5752 10.6975L19.1816 9.90234ZM20.6387 10.1973L20.7382 9.20224L20.6387 10.1973ZM21.459 10.3506L21.918 9.46217L21.9176 9.46195L21.459 10.3506ZM21.9297 10.8711L22.8596 10.5032L22.8596 10.5032L21.9297 10.8711ZM22 11.7021H23H22ZM22 12.9658H23H22ZM21.9297 13.7969L22.8595 14.1649L22.8597 14.1644L21.9297 13.7969ZM21.458 14.3174L21.9161 15.2063L21.9162 15.2062L21.458 14.3174ZM20.6387 14.4697L20.738 15.4648L20.6387 14.4697ZM19.1826 14.7646L18.5764 13.9693L18.5764 13.9694L19.1826 14.7646ZM18.7979 15.6934L17.8068 15.8269L17.8068 15.827L18.7979 15.6934ZM19.6191 16.9316L20.3931 16.2984L19.6191 16.9316ZM20.0908 17.6182L21.0433 17.3137L21.0432 17.3131L20.0908 17.6182ZM20.0557 18.3203L20.9732 18.718L20.9733 18.7177L20.0557 18.3203ZM17.9873 20.3887L18.3847 21.3063L18.3848 21.3063L17.9873 20.3887ZM17.2861 20.4238L16.9821 21.3765L16.9822 21.3765L17.2861 20.4238ZM16.5977 19.9521L17.2308 19.1781L16.5977 19.9521ZM15.3584 19.1299L15.4913 18.1388L15.4909 18.1387L15.3584 19.1299ZM14.4307 19.5146L13.6357 18.908L13.6357 18.908L14.4307 19.5146ZM14.1357 20.9717L13.1407 20.8723L14.1357 20.9717ZM13.9834 21.792L14.8721 22.2504L14.8723 22.25L13.9834 21.792ZM13.4629 22.2637L13.8308 23.1935L13.831 23.1935L13.4629 22.2637ZM11.3682 22.334V23.334V22.334ZM10.5371 22.2637L10.1692 23.1935L10.1693 23.1936L10.5371 22.2637ZM10.0166 21.793L9.12797 22.2516L9.12818 22.252L10.0166 21.793ZM9.86328 20.9727L8.86825 21.0722L9.86328 20.9727ZM9.56836 19.5156L10.3635 18.9092L10.3634 18.909L9.56836 19.5156ZM8.63965 19.1309L8.50611 18.1398L8.5053 18.1399L8.63965 19.1309ZM7.40137 19.9521L8.03478 20.726L7.40137 19.9521ZM6.71387 20.4248L7.01793 21.3775L7.01836 21.3773L6.71387 20.4248ZM6.0127 20.3896L5.61514 21.3072L5.61548 21.3074L6.0127 20.3896ZM4.48242 18.959L3.77532 19.6661L4.48242 18.959ZM3.94434 18.3213L3.02669 18.7187L3.02674 18.7188L3.94434 18.3213ZM3.90918 17.6201L2.95651 17.3161L2.95649 17.3162L3.90918 17.6201ZM4.38086 16.9316L3.60684 16.2985L4.38086 16.9316ZM5.20312 15.6934L6.19415 15.827L6.1942 15.8266L5.20312 15.6934ZM4.81836 14.7646L5.42497 13.9697L5.42472 13.9695L4.81836 14.7646ZM3.36133 14.4697L3.26196 15.4648L3.36133 14.4697ZM2.54199 14.3174L2.08374 15.2062L2.08384 15.2063L2.54199 14.3174ZM2.07031 13.7969L1.14035 14.1645L1.14051 14.1649L2.07031 13.7969ZM2 12.9658H1H2ZM2 11.7021H1H2ZM2.07031 10.8711L1.14043 10.5032L1.1404 10.5033L2.07031 10.8711ZM2.54102 10.3506L2.08244 9.46193L2.08197 9.46217L2.54102 10.3506ZM3.36133 10.1973L3.26173 9.20224L3.36133 10.1973ZM4.81836 9.90234L5.42502 10.6973L5.42518 10.6972L4.81836 9.90234ZM5.20312 8.97461L6.19425 8.84165L6.1942 8.84132L5.20312 8.97461ZM4.38086 7.73535L3.60693 8.36863L4.38086 7.73535ZM3.90918 7.04785L2.9565 7.35184L2.9566 7.35214L3.90918 7.04785ZM3.94434 6.34668L3.02674 5.94916L3.02667 5.94932L3.94434 6.34668ZM6.0127 4.27832L5.61521 3.36071L5.61519 3.36072L6.0127 4.27832ZM6.71387 4.24316L7.01795 3.29052L7.01778 3.29047L6.71387 4.24316ZM7.40234 4.71484L6.76921 5.48888L7.40234 4.71484ZM8.64062 5.53613L8.50748 6.52723L8.50761 6.52725L8.64062 5.53613ZM9.56836 5.15137L10.3633 5.75802L10.3635 5.75784L9.56836 5.15137ZM9.86328 3.69531L10.8583 3.79493L9.86328 3.69531ZM10.0166 2.875L9.12819 2.41595L9.12792 2.41647L10.0166 2.875ZM10.5371 2.4043L10.1694 1.47436L10.1693 1.47441L10.5371 2.4043ZM12.6318 2.33398V3.33398C12.8626 3.33398 12.9873 3.33457 13.0772 3.34062C13.1573 3.34601 13.1415 3.35256 13.0952 3.33425L13.4629 2.4043L13.8306 1.47434C13.6071 1.38601 13.3936 1.35739 13.2115 1.34513C13.0391 1.33354 12.8368 1.33398 12.6318 1.33398V2.33398ZM13.4629 2.4043L13.0948 3.3341L13.0946 3.33423L13.9834 2.87598L14.8722 2.41772C14.6509 1.98844 14.2815 1.65284 13.8309 1.47449L13.4629 2.4043ZM13.9834 2.87598L13.0945 3.33413C13.0717 3.2899 13.0766 3.2734 13.0899 3.35237C13.1048 3.44118 13.1178 3.56496 13.1407 3.79468L14.1357 3.69531L15.1308 3.59595C15.1105 3.39223 15.0908 3.19098 15.0622 3.02081C15.032 2.84079 14.9823 2.63133 14.8723 2.41782L13.9834 2.87598ZM14.1357 3.69531L13.1407 3.79468C13.18 4.18844 13.2147 4.54287 13.2654 4.82428C13.3142 5.09596 13.4005 5.45059 13.6355 5.75871L14.4307 5.15234L15.2259 4.54598C15.2891 4.6289 15.2689 4.66541 15.2337 4.47008C15.2003 4.28447 15.1734 4.02299 15.1308 3.59595L14.1357 3.69531ZM14.4307 5.15234L13.6357 5.75896C14.0713 6.32991 14.7804 6.62398 15.4927 6.52819L15.3594 5.53711L15.2261 4.54603L15.2257 4.54573L14.4307 5.15234ZM15.3594 5.53711L15.493 6.52814C15.8777 6.47626 16.1896 6.28575 16.4157 6.12835C16.6499 5.96527 16.925 5.73906 17.2308 5.48886L16.5977 4.71484L15.9645 3.94082C15.6318 4.21299 15.428 4.37899 15.2729 4.487C15.1096 4.60067 15.1217 4.56011 15.2257 4.54608L15.3594 5.53711ZM16.5977 4.71484L17.2308 5.48886C17.4093 5.34289 17.5062 5.26446 17.5795 5.21244C17.6447 5.16614 17.6369 5.18091 17.5901 5.19583L17.2861 4.24316L16.9821 3.2905C16.5744 3.42062 16.2337 3.72064 15.9645 3.94082L16.5977 4.71484ZM17.2861 4.24316L17.5901 5.19586L17.5899 5.19597L17.9873 4.27832L18.3847 3.36067C17.9413 3.16867 17.4432 3.14341 16.9822 3.29047L17.2861 4.24316ZM17.9873 4.27832L17.5898 5.19592C17.5443 5.1762 17.5378 5.16045 17.5982 5.21324C17.6661 5.27253 17.7546 5.36026 17.9179 5.52351L18.625 4.81641L19.3321 4.1093C19.1871 3.96425 19.0442 3.82082 18.9141 3.70708C18.7764 3.58684 18.6052 3.4562 18.3848 3.36072L17.9873 4.27832ZM18.625 4.81641L17.9179 5.52351L18.8105 6.41609L19.5176 5.70898L20.2247 5.00188L19.3321 4.1093L18.625 4.81641ZM19.5176 5.70898L18.8105 6.41609C18.9736 6.57926 19.0614 6.66789 19.1207 6.73577C19.1736 6.79627 19.1578 6.78979 19.1381 6.74423L20.0557 6.34668L20.9732 5.94913C20.8778 5.72874 20.7471 5.55753 20.6269 5.41994C20.5131 5.28974 20.3697 5.14693 20.2247 5.00188L19.5176 5.70898ZM20.0557 6.34668L19.1379 6.7439L19.1382 6.74379L20.0908 7.04785L21.0435 7.35191C21.1907 6.89066 21.1652 6.39253 20.9734 5.94946L20.0557 6.34668ZM20.0908 7.04785L19.1383 6.74335C19.1538 6.69504 19.1693 6.68643 19.1224 6.75219C19.0697 6.82599 18.991 6.92273 18.8444 7.10194L19.6182 7.73535L20.392 8.36877C20.5214 8.21071 20.6501 8.05443 20.7502 7.91417C20.856 7.76586 20.9699 7.58214 21.0433 7.35235L20.0908 7.04785ZM19.6182 7.73535L18.8444 7.10194C18.5936 7.40821 18.3677 7.68322 18.2046 7.91803C18.0471 8.14486 17.8579 8.45609 17.8059 8.83929L18.7969 8.97363L19.7878 9.10798C19.7739 9.21058 19.7342 9.22172 19.8472 9.05908C19.9546 8.90441 20.1204 8.70058 20.392 8.36877L19.6182 7.73535ZM18.7969 8.97363L17.8058 8.8401C17.7098 9.55281 18.0041 10.2617 18.5751 10.6974L19.1816 9.90234L19.7882 9.10733L19.7879 9.10717L18.7969 8.97363ZM19.1816 9.90234L18.5752 10.6975C18.8834 10.9325 19.2381 11.0188 19.5097 11.0676C19.7909 11.1182 20.1454 11.1529 20.5391 11.1923L20.6387 10.1973L20.7382 9.20224C20.3109 9.15947 20.0494 9.13259 19.8637 9.09919C19.6684 9.06405 19.705 9.04389 19.788 9.10718L19.1816 9.90234ZM20.6387 10.1973L20.5391 11.1923C20.7682 11.2152 20.8923 11.2284 20.9809 11.2434C21.0599 11.2568 21.044 11.2617 21.0004 11.2392L21.459 10.3506L21.9176 9.46195C21.5374 9.26572 21.0842 9.23686 20.7382 9.20224L20.6387 10.1973ZM21.459 10.3506L21 11.239L20.9998 11.239L21.9297 10.8711L22.8596 10.5032C22.6818 10.054 22.3476 9.68412 21.918 9.46217L21.459 10.3506ZM21.9297 10.8711L20.9998 11.2389C20.9815 11.1926 20.988 11.1767 20.9934 11.2567C20.9994 11.3466 21 11.4712 21 11.7021H22H23C23 11.4972 23.0005 11.2949 22.9889 11.1225C22.9766 10.9403 22.948 10.7268 22.8596 10.5032L21.9297 10.8711ZM22 11.7021H21V12.9658H22H23V11.7021H22ZM22 12.9658H21C21 13.1965 20.9994 13.3212 20.9933 13.4111C20.988 13.4913 20.9814 13.4756 20.9997 13.4293L21.9297 13.7969L22.8597 14.1644C22.948 13.9411 22.9766 13.7276 22.9888 13.5455C23.0004 13.3731 23 13.1708 23 12.9658H22ZM21.9297 13.7969L20.9999 13.4288L20.9998 13.4285L21.458 14.3174L21.9162 15.2062C22.3456 14.9849 22.6812 14.6155 22.8595 14.1649L21.9297 13.7969ZM21.458 14.3174L20.9999 13.4285C21.0441 13.4057 21.0606 13.4106 20.9816 13.4239C20.8928 13.4388 20.769 13.4517 20.5393 13.4747L20.6387 14.4697L20.738 15.4648C20.9418 15.4444 21.143 15.4248 21.3132 15.3962C21.4932 15.3659 21.7027 15.3163 21.9161 15.2063L21.458 14.3174ZM20.6387 14.4697L20.5393 13.4747C20.1455 13.514 19.7913 13.5487 19.51 13.5994C19.2383 13.6484 18.8842 13.7347 18.5764 13.9693L19.1826 14.7646L19.7888 15.56C19.7062 15.623 19.6698 15.6028 19.8647 15.5677C20.05 15.5343 20.3112 15.5074 20.738 15.4648L20.6387 14.4697ZM19.1826 14.7646L18.5764 13.9694C18.0046 14.4052 17.7108 15.1143 17.8068 15.8269L18.7979 15.6934L19.7889 15.5598L19.7889 15.5599L19.1826 14.7646ZM18.7979 15.6934L17.8068 15.827C17.8586 16.2108 18.0481 16.5224 18.2056 16.749C18.3687 16.9837 18.5947 17.2587 18.8452 17.5649L19.6191 16.9316L20.3931 16.2984C20.1213 15.9663 19.9556 15.7625 19.848 15.6077C19.7349 15.4449 19.775 15.4565 19.7889 15.5597L18.7979 15.6934ZM19.6191 16.9316L18.8452 17.5649C18.9915 17.7437 19.0699 17.8403 19.1224 17.9138C19.1691 17.9793 19.1538 17.971 19.1385 17.9232L20.0908 17.6182L21.0432 17.3131C20.9698 17.0841 20.8565 16.9009 20.7508 16.7527C20.6508 16.6124 20.5224 16.4564 20.3931 16.2984L19.6191 16.9316ZM20.0908 17.6182L19.1383 17.9227L19.138 17.923L20.0557 18.3203L20.9733 18.7177C21.1653 18.2744 21.1909 17.7754 21.0433 17.3137L20.0908 17.6182ZM20.0557 18.3203L19.1382 17.9226C19.1579 17.877 19.1736 17.8706 19.1206 17.9313C19.0613 17.9992 18.9735 18.0879 18.8105 18.2509L19.5176 18.958L20.2247 19.6651C20.3697 19.5201 20.5131 19.3773 20.6269 19.247C20.747 19.1095 20.8777 18.9383 20.9732 18.718L20.0557 18.3203ZM19.5176 18.958L18.8105 18.2509L17.9179 19.1435L18.625 19.8506L19.3321 20.5577L20.2247 19.6651L19.5176 18.958ZM18.625 19.8506L17.9179 19.1435C17.7546 19.3067 17.6661 19.3945 17.5982 19.4538C17.5378 19.5065 17.5443 19.4908 17.5898 19.4711L17.9873 20.3887L18.3848 21.3063C18.6052 21.2108 18.7764 21.0801 18.9141 20.9599C19.0442 20.8462 19.1871 20.7027 19.3321 20.5577L18.625 19.8506ZM17.9873 20.3887L17.5899 19.471L17.5901 19.4711L17.2861 20.4238L16.9822 21.3765C17.4432 21.5236 17.9413 21.4983 18.3847 21.3063L17.9873 20.3887ZM17.2861 20.4238L17.5902 19.4712C17.6369 19.4861 17.6447 19.5009 17.5794 19.4545C17.5062 19.4025 17.4092 19.324 17.2308 19.1781L16.5977 19.9521L15.9645 20.7262C16.2336 20.9463 16.5744 21.2464 16.9821 21.3765L17.2861 20.4238ZM16.5977 19.9521L17.2308 19.1781C16.9247 18.9277 16.6494 18.7014 16.4148 18.5382C16.1884 18.3807 15.8762 18.1904 15.4913 18.1388L15.3584 19.1299L15.2255 20.121C15.1215 20.1071 15.1095 20.0666 15.2728 20.1801C15.4279 20.288 15.6318 20.454 15.9645 20.7262L16.5977 19.9521ZM15.3584 19.1299L15.4909 18.1387C14.7792 18.0436 14.071 18.3375 13.6357 18.908L14.4307 19.5146L15.2257 20.1213L15.2259 20.1211L15.3584 19.1299ZM14.4307 19.5146L13.6357 18.908C13.4005 19.2162 13.3142 19.5709 13.2653 19.8427C13.2147 20.1241 13.18 20.4785 13.1407 20.8723L14.1357 20.9717L15.1308 21.071C15.1735 20.6437 15.2003 20.3823 15.2337 20.1968C15.2688 20.0016 15.289 20.0383 15.2257 20.1213L14.4307 19.5146ZM14.1357 20.9717L13.1407 20.8723C13.1177 21.1023 13.1048 21.2263 13.0899 21.3155C13.0765 21.3949 13.0716 21.3784 13.0945 21.3339L13.9834 21.792L14.8723 22.25C14.9825 22.0362 15.0321 21.8264 15.0623 21.6465C15.0908 21.4762 15.1105 21.2748 15.1308 21.071L14.1357 20.9717ZM13.9834 21.792L13.0947 21.3336L13.0948 21.3339L13.4629 22.2637L13.831 23.1935C14.2816 23.0151 14.6509 22.6793 14.8721 22.2504L13.9834 21.792ZM13.4629 22.2637L13.095 21.3338C13.1415 21.3154 13.1575 21.322 13.077 21.3274C12.9868 21.3334 12.8619 21.334 12.6309 21.334V22.334V23.334C12.8359 23.334 13.0384 23.3345 13.2109 23.3229C13.3931 23.3107 13.607 23.2821 13.8308 23.1935L13.4629 22.2637ZM12.6309 22.334V21.334H11.3682V22.334V23.334H12.6309V22.334ZM11.3682 22.334V21.334C11.1372 21.334 11.0126 21.3334 10.9227 21.3274C10.8427 21.322 10.8587 21.3155 10.905 21.3338L10.5371 22.2637L10.1693 23.1936C10.3928 23.282 10.6063 23.3106 10.7886 23.3229C10.9609 23.3345 11.1633 23.334 11.3682 23.334V22.334ZM10.5371 22.2637L10.905 21.3338L10.905 21.3339L10.0166 21.793L9.12818 22.252C9.35014 22.6816 9.72005 23.0158 10.1692 23.1935L10.5371 22.2637ZM10.0166 21.793L10.9052 21.3344C10.9278 21.378 10.9228 21.3938 10.9094 21.3149C10.8944 21.2263 10.8812 21.1022 10.8583 20.8731L9.86328 20.9727L8.86825 21.0722C8.90287 21.4182 8.93174 21.8714 9.12797 22.2516L10.0166 21.793ZM9.86328 20.9727L10.8583 20.8731C10.8189 20.4794 10.7842 20.1249 10.7336 19.8437C10.6848 19.5721 10.5986 19.2174 10.3635 18.9092L9.56836 19.5156L8.7732 20.122C8.70991 20.039 8.73007 20.0024 8.7652 20.1977C8.7986 20.3834 8.82548 20.6449 8.86825 21.0722L9.86328 20.9727ZM9.56836 19.5156L10.3634 18.909C9.92775 18.3381 9.21883 18.0438 8.50611 18.1398L8.63965 19.1309L8.77319 20.1219L8.77334 20.1222L9.56836 19.5156ZM8.63965 19.1309L8.5053 18.1399C8.12211 18.1919 7.81088 18.381 7.58405 18.5386C7.34924 18.7017 7.07423 18.9276 6.76795 19.1783L7.40137 19.9521L8.03478 20.726C8.3666 20.4543 8.57043 20.2886 8.72509 20.1812C8.88773 20.0682 8.8766 20.1079 8.774 20.1218L8.63965 19.1309ZM7.40137 19.9521L6.76795 19.1783C6.58874 19.325 6.49201 19.4037 6.4182 19.4563C6.35245 19.5033 6.36106 19.4877 6.40937 19.4723L6.71387 20.4248L7.01836 21.3773C7.24815 21.3039 7.43188 21.19 7.58019 21.0842C7.72045 20.984 7.87672 20.8553 8.03478 20.726L7.40137 19.9521ZM6.71387 20.4248L6.40981 19.4722L6.40991 19.4719L6.0127 20.3896L5.61548 21.3074C6.05854 21.4991 6.55667 21.5247 7.01793 21.3775L6.71387 20.4248ZM6.0127 20.3896L6.41025 19.4721C6.45581 19.4918 6.46229 19.5075 6.40179 19.4547C6.33391 19.3954 6.24528 19.3076 6.08211 19.1445L5.375 19.8516L4.66789 20.5587C4.81295 20.7037 4.95575 20.8471 5.08596 20.9609C5.22354 21.0811 5.39476 21.2117 5.61514 21.3072L6.0127 20.3896ZM5.375 19.8516L6.08211 19.1445L5.18953 18.2519L4.48242 18.959L3.77532 19.6661L4.66789 20.5587L5.375 19.8516ZM4.48242 18.959L5.18953 18.2519C5.02628 18.0886 4.93854 18 4.87926 17.9322C4.82647 17.8718 4.84222 17.8783 4.86193 17.9238L3.94434 18.3213L3.02674 18.7188C3.12222 18.9392 3.25286 19.1104 3.3731 19.248C3.48684 19.3782 3.63026 19.521 3.77532 19.6661L4.48242 18.959ZM3.94434 18.3213L4.86199 17.9239L4.86187 17.924L3.90918 17.6201L2.95649 17.3162C2.80942 17.7772 2.83468 18.2753 3.02669 18.7187L3.94434 18.3213ZM3.90918 17.6201L4.86185 17.9241C4.84693 17.9709 4.83215 17.9787 4.87846 17.9135C4.93048 17.8402 5.00891 17.7432 5.15488 17.5648L4.38086 16.9316L3.60684 16.2985C3.38666 16.5676 3.08663 16.9084 2.95651 17.3161L3.90918 17.6201ZM4.38086 16.9316L5.15488 17.5648C5.40508 17.2589 5.63129 16.9839 5.79436 16.7497C5.95177 16.5236 6.14228 16.2117 6.19415 15.827L5.20312 15.6934L4.2121 15.5597C4.22613 15.4557 4.26669 15.4436 4.15301 15.6069C4.04501 15.762 3.87901 15.9658 3.60684 16.2985L4.38086 16.9316ZM5.20312 15.6934L6.1942 15.8266C6.29 15.1143 5.99593 14.4053 5.42497 13.9697L4.81836 14.7646L4.21175 15.5596L4.21205 15.5601L5.20312 15.6934ZM4.81836 14.7646L5.42472 13.9695C5.11661 13.7345 4.76198 13.6482 4.4903 13.5993C4.20889 13.5487 3.85445 13.514 3.46069 13.4747L3.36133 14.4697L3.26196 15.4648C3.68901 15.5074 3.95049 15.5343 4.13609 15.5677C4.33143 15.6029 4.29491 15.6231 4.21199 15.5598L4.81836 14.7646ZM3.36133 14.4697L3.46069 13.4747C3.23097 13.4517 3.10719 13.4388 3.01838 13.4239C2.93941 13.4106 2.95592 13.4057 3.00015 13.4285L2.54199 14.3174L2.08384 15.2063C2.29735 15.3163 2.5068 15.3659 2.68682 15.3962C2.857 15.4248 3.05825 15.4444 3.26196 15.4648L3.36133 14.4697ZM2.54199 14.3174L3.00024 13.4286L3.00012 13.4288L2.07031 13.7969L1.14051 14.1649C1.31885 14.6155 1.65446 14.9849 2.08374 15.2062L2.54199 14.3174ZM2.07031 13.7969L3.00027 13.4292C3.01857 13.4755 3.01203 13.4913 3.00664 13.4112C3.00059 13.3212 3 13.1966 3 12.9658H2H1C1 13.1707 0.999553 13.3731 1.01115 13.5454C1.02341 13.7276 1.05202 13.9411 1.14035 14.1645L2.07031 13.7969ZM2 12.9658H3V11.7021H2H1V12.9658H2ZM2 11.7021H3C3 11.4712 3.00058 11.3466 3.00662 11.2567C3.012 11.1767 3.01852 11.1926 3.00022 11.2389L2.07031 10.8711L1.1404 10.5033C1.05202 10.7268 1.02338 10.9403 1.01113 11.1225C0.999539 11.2949 1 11.4972 1 11.7021H2ZM2.07031 10.8711L3.00019 11.239L3.00006 11.239L2.54102 10.3506L2.08197 9.46217C1.65242 9.68412 1.31815 10.054 1.14043 10.5032L2.07031 10.8711ZM2.54102 10.3506L2.99959 11.2392C2.95597 11.2618 2.94012 11.2568 3.01912 11.2434C3.10771 11.2284 3.23179 11.2152 3.46092 11.1923L3.36133 10.1973L3.26173 9.20224C2.91578 9.23687 2.46263 9.26574 2.08244 9.46193L2.54102 10.3506ZM3.36133 10.1973L3.46092 11.1923C3.85452 11.1529 4.20901 11.1182 4.49024 11.0677C4.76181 11.0188 5.11669 10.9326 5.42502 10.6973L4.81836 9.90234L4.2117 9.10738C4.29483 9.04394 4.33172 9.06409 4.13634 9.09921C3.95061 9.1326 3.68918 9.15945 3.26173 9.20224L3.36133 10.1973ZM4.81836 9.90234L5.42518 10.6972C5.9951 10.2621 6.28985 9.5543 6.19425 8.84165L5.20312 8.97461L4.212 9.10757L4.21154 9.10751L4.81836 9.90234ZM5.20312 8.97461L6.1942 8.84132C6.14249 8.45683 5.95228 8.14473 5.79477 7.91823C5.63154 7.6835 5.40531 7.40824 5.15479 7.10208L4.38086 7.73535L3.60693 8.36863C3.8789 8.701 4.04493 8.905 4.15276 9.06007C4.26633 9.22338 4.226 9.21164 4.21205 9.1079L5.20312 8.97461ZM4.38086 7.73535L5.15479 7.10208C5.00868 6.92353 4.93026 6.82676 4.87804 6.75338C4.83153 6.68803 4.84662 6.69616 4.86176 6.74356L3.90918 7.04785L2.9566 7.35214C3.0297 7.58098 3.14271 7.76432 3.2486 7.91309C3.34876 8.05382 3.4772 8.21009 3.60693 8.36863L4.38086 7.73535ZM3.90918 7.04785L4.86186 6.74386L4.862 6.74404L3.94434 6.34668L3.02667 5.94932C2.83472 6.39263 2.80938 6.89075 2.9565 7.35184L3.90918 7.04785ZM3.94434 6.34668L4.86193 6.7442C4.84219 6.78976 4.82644 6.79626 4.87928 6.73578C4.93858 6.6679 5.02633 6.57929 5.18953 6.41609L4.48242 5.70898L3.77532 5.00188C3.63027 5.14692 3.48685 5.28973 3.37311 5.41993C3.2529 5.55753 3.12223 5.72875 3.02674 5.94916L3.94434 6.34668ZM4.48242 5.70898L5.18953 6.41609L6.08211 5.52351L5.375 4.81641L4.66789 4.1093L3.77532 5.00188L4.48242 5.70898ZM5.375 4.81641L6.08211 5.52351C6.24532 5.3603 6.33393 5.27255 6.4018 5.21326C6.46226 5.16043 6.45576 5.17619 6.4102 5.19592L6.0127 4.27832L5.61519 3.36072C5.39477 3.45621 5.22355 3.58687 5.08594 3.70709C4.95575 3.82084 4.81294 3.96426 4.66789 4.1093L5.375 4.81641ZM6.0127 4.27832L6.41018 5.19593L6.40995 5.19586L6.71387 4.24316L7.01778 3.29047C6.55686 3.14343 6.05874 3.16859 5.61521 3.36071L6.0127 4.27832ZM6.71387 4.24316L6.40979 5.19581C6.36297 5.18087 6.35524 5.1661 6.42056 5.2125C6.49384 5.26455 6.59086 5.343 6.76921 5.48888L7.40234 4.71484L8.03548 3.9408C7.76648 3.72077 7.42559 3.42063 7.01795 3.29052L6.71387 4.24316ZM7.40234 4.71484L6.76921 5.48888C7.07525 5.73921 7.35032 5.96524 7.58484 6.12827C7.81136 6.28574 8.12316 6.4756 8.50748 6.52723L8.64062 5.53613L8.77377 4.54504C8.87739 4.55896 8.88926 4.59928 8.72642 4.48608C8.57158 4.37844 8.36787 4.21268 8.03548 3.9408L7.40234 4.71484ZM8.64062 5.53613L8.50761 6.52725C9.22027 6.62289 9.92812 6.32833 10.3633 5.75802L9.56836 5.15137L8.77339 4.54472L8.77364 4.54502L8.64062 5.53613ZM9.56836 5.15137L10.3635 5.75784C10.5984 5.44977 10.6847 5.0954 10.7336 4.82378C10.7842 4.54268 10.8189 4.18843 10.8583 3.79493L9.86328 3.69531L8.86826 3.59569C8.82549 4.02286 8.79862 4.28404 8.76524 4.46949C8.73015 4.66444 8.71005 4.62776 8.77325 4.5449L9.56836 5.15137ZM9.86328 3.69531L10.8583 3.79493C10.8812 3.56582 10.8944 3.44172 10.9094 3.35311C10.9228 3.27408 10.9278 3.28991 10.9053 3.33353L10.0166 2.875L9.12792 2.41647C8.93178 2.79662 8.90289 3.24977 8.86826 3.59569L9.86328 3.69531ZM10.0166 2.875L10.905 3.33405L10.905 3.33418L10.5371 2.4043L10.1693 1.47441C9.72001 1.65213 9.35013 1.98642 9.12819 2.41595L10.0166 2.875ZM10.5371 2.4043L10.9048 3.33423C10.8586 3.35252 10.8427 3.346 10.9227 3.34061C11.0127 3.33457 11.1373 3.33398 11.3682 3.33398V2.33398V1.33398C11.1632 1.33398 10.9609 1.33353 10.7885 1.34512C10.6063 1.35738 10.3928 1.38601 10.1694 1.47436L10.5371 2.4043ZM11.3682 2.33398V3.33398H12.6318V2.33398V1.33398H11.3682V2.33398ZM12 8.33398V7.33398C9.23858 7.33398 7 9.57256 7 12.334H8H9C9 10.6771 10.3431 9.33398 12 9.33398V8.33398ZM8 12.334H7C7 15.0954 9.23858 17.334 12 17.334V16.334V15.334C10.3431 15.334 9 13.9908 9 12.334H8ZM12 16.334V17.334C14.7614 17.334 17 15.0954 17 12.334H16H15C15 13.9908 13.6569 15.334 12 15.334V16.334ZM16 12.334H17C17 9.57256 14.7614 7.33398 12 7.33398V8.33398V9.33398C13.6569 9.33398 15 10.6771 15 12.334H16Z" fill="#949494"/>
</svg>
