<svg width="32" height="32" viewBox="0 0 32 32" fill="none" xmlns="http://www.w3.org/2000/svg">
<rect width="32" height="32" rx="8" fill="#BBD3CD" fill-opacity="0.25"/>
<path d="M19.4501 11.365C19.4501 11.365 19.8326 11.74 19.4501 11.365C18.9551 10.795 18.6551 10.06 18.6551 9.25H16.3376V18.55C16.3001 19.5925 15.4451 20.425 14.3951 20.425C13.3301 20.425 12.4451 19.555 12.4451 18.475C12.4451 17.185 13.6901 16.2175 14.9726 16.615V14.245C12.3851 13.9 10.1201 15.91 10.1201 18.475C10.1201 20.9725 12.1901 22.75 14.3876 22.75C16.7426 22.75 18.6551 20.8375 18.6551 18.475V13.7575C19.5626 14.41 20.6801 14.7925 21.8801 14.7925V12.475C21.8801 12.475 20.4701 12.5425 19.4501 11.365Z" fill="#1E1E1E"/>
</svg>
