<svg width="33" height="32" viewBox="0 0 33 32" fill="none" xmlns="http://www.w3.org/2000/svg">
<rect x="0.5" width="32" height="32" rx="8" fill="#BBD3CD" fill-opacity="0.25"/>
<path d="M21.7876 10.6825C20.3851 9.2725 18.5176 8.5 16.5301 8.5C12.4351 8.5 9.0976 11.8375 9.0976 15.9325C9.0976 17.245 9.4426 18.52 10.0876 19.645L9.0376 23.5L12.9751 22.465C14.0626 23.0575 15.2851 23.3725 16.5301 23.3725C20.6251 23.3725 23.9626 20.035 23.9626 15.94C23.9626 13.9525 23.1901 12.085 21.7876 10.6825ZM16.5301 22.1125C15.4201 22.1125 14.3326 21.8125 13.3801 21.25L13.1551 21.115L10.8151 21.73L11.4376 19.45L11.2876 19.2175C10.6726 18.235 10.3426 17.095 10.3426 15.9325C10.3426 12.5275 13.1176 9.7525 16.5226 9.7525C18.1726 9.7525 19.7251 10.3975 20.8876 11.5675C22.0576 12.7375 22.6951 14.29 22.6951 15.94C22.7101 19.345 19.9351 22.1125 16.5301 22.1125ZM19.9201 17.4925C19.7326 17.4025 18.8176 16.9525 18.6526 16.885C18.4801 16.825 18.3601 16.795 18.2326 16.975C18.1051 17.1625 17.7526 17.5825 17.6476 17.7025C17.5426 17.83 17.4301 17.845 17.2426 17.7475C17.0551 17.6575 16.4551 17.455 15.7501 16.825C15.1951 16.33 14.8276 15.7225 14.7151 15.535C14.6101 15.3475 14.7001 15.25 14.7976 15.1525C14.8801 15.07 14.9851 14.935 15.0751 14.83C15.1651 14.725 15.2026 14.6425 15.2626 14.5225C15.3226 14.395 15.2926 14.29 15.2476 14.2C15.2026 14.11 14.8276 13.195 14.6776 12.82C14.5276 12.46 14.3701 12.505 14.2576 12.4975C14.1451 12.4975 14.0251 12.4975 13.8976 12.4975C13.7701 12.4975 13.5751 12.5425 13.4026 12.73C13.2376 12.9175 12.7576 13.3675 12.7576 14.2825C12.7576 15.1975 13.4251 16.0825 13.5151 16.2025C13.6051 16.33 14.8276 18.205 16.6876 19.0075C17.1301 19.2025 17.4751 19.315 17.7451 19.3975C18.1876 19.54 18.5926 19.5175 18.9151 19.4725C19.2751 19.42 20.0176 19.0225 20.1676 18.5875C20.3251 18.1525 20.3251 17.785 20.2726 17.7025C20.2201 17.62 20.1076 17.5825 19.9201 17.4925Z" fill="#1E1E1E"/>
</svg>
