<svg width="32" height="32" viewBox="0 0 32 32" fill="none" xmlns="http://www.w3.org/2000/svg">
<rect width="32" height="32" rx="8" fill="#BBD3CD" fill-opacity="0.25"/>
<path fill-rule="evenodd" clip-rule="evenodd" d="M21.282 11.7891C21.8603 11.9448 22.3162 12.4007 22.4719 12.979C22.7611 14.0354 22.7499 16.2372 22.7499 16.2372C22.7499 16.2372 22.7499 18.4278 22.472 19.4843C22.3162 20.0625 21.8604 20.5185 21.282 20.6741C20.2256 20.9522 16 20.9522 16 20.9522C16 20.9522 11.7854 20.9522 10.7179 20.6631C10.1396 20.5073 9.68372 20.0514 9.52799 19.4731C9.25 18.4278 9.25 16.2261 9.25 16.2261C9.25 16.2261 9.25 14.0354 9.52799 12.979C9.68361 12.4008 10.1507 11.9337 10.7178 11.7781C11.7742 11.5 15.9999 11.5 15.9999 11.5C15.9999 11.5 20.2256 11.5 21.282 11.7891ZM18.1684 16.2261L14.6544 18.25V14.2022L18.1684 16.2261Z" fill="#1E1E1E"/>
</svg>
